<svg width="34" height="34" viewBox="0 0 34 34" fill="none" xmlns="http://www.w3.org/2000/svg">
<path d="M17.0067 9.36318C12.7833 9.36318 9.37666 12.7698 9.37666 16.9933C9.37666 21.2167 12.7833 24.6233 17.0067 24.6233C21.2302 24.6233 24.6368 21.2167 24.6368 16.9933C24.6368 12.7698 21.2302 9.36318 17.0067 9.36318ZM17.0067 21.9538C14.2774 21.9538 12.0462 19.7292 12.0462 16.9933C12.0462 14.2573 14.2708 12.0327 17.0067 12.0327C19.7427 12.0327 21.9673 14.2573 21.9673 16.9933C21.9673 19.7292 19.736 21.9538 17.0067 21.9538ZM26.7286 9.05107C26.7286 10.0405 25.9317 10.8308 24.9489 10.8308C23.9595 10.8308 23.1692 10.0339 23.1692 9.05107C23.1692 8.06826 23.9661 7.27139 24.9489 7.27139C25.9317 7.27139 26.7286 8.06826 26.7286 9.05107ZM31.7821 10.8573C31.6692 8.47334 31.1247 6.36162 29.3782 4.62178C27.6384 2.88193 25.5267 2.3374 23.1427 2.21787C20.6856 2.07842 13.3212 2.07842 10.8642 2.21787C8.48682 2.33076 6.3751 2.87529 4.62861 4.61514C2.88213 6.35498 2.34424 8.4667 2.22471 10.8507C2.08525 13.3077 2.08525 20.6722 2.22471 23.1292C2.3376 25.5132 2.88213 27.6249 4.62861 29.3647C6.3751 31.1046 8.48018 31.6491 10.8642 31.7687C13.3212 31.9081 20.6856 31.9081 23.1427 31.7687C25.5267 31.6558 27.6384 31.1112 29.3782 29.3647C31.1181 27.6249 31.6626 25.5132 31.7821 23.1292C31.9216 20.6722 31.9216 13.3144 31.7821 10.8573ZM28.6079 25.7655C28.0899 27.0671 27.0872 28.0698 25.779 28.5944C23.82 29.3714 19.1716 29.1921 17.0067 29.1921C14.8419 29.1921 10.1868 29.3647 8.23447 28.5944C6.93291 28.0765 5.93018 27.0737 5.40557 25.7655C4.62861 23.8065 4.80791 19.1581 4.80791 16.9933C4.80791 14.8284 4.63525 10.1733 5.40557 8.221C5.92354 6.91943 6.92627 5.9167 8.23447 5.39209C10.1935 4.61514 14.8419 4.79443 17.0067 4.79443C19.1716 4.79443 23.8267 4.62178 25.779 5.39209C27.0806 5.91006 28.0833 6.91279 28.6079 8.221C29.3849 10.18 29.2056 14.8284 29.2056 16.9933C29.2056 19.1581 29.3849 23.8132 28.6079 25.7655Z" fill="black"/>
</svg>
