<svg width="73" height="68" viewBox="0 0 73 68" fill="none" xmlns="http://www.w3.org/2000/svg">
<g clip-path="url(#clip0_25_68)">
<path d="M47.126 34.6804C47.126 41.5086 52.7267 47.0448 59.6346 47.0448C66.5424 47.0448 72.1432 41.5086 72.1432 34.6804L59.6346 13.9475L47.126 34.6804Z" stroke="#0A1E86" stroke-width="2" stroke-linecap="round" stroke-linejoin="round"/>
<path d="M47.126 34.6804H72.1345" stroke="#0A1E86" stroke-width="2" stroke-linecap="round" stroke-linejoin="round"/>
<path d="M0.865723 34.6804C0.865723 41.5086 6.46646 47.0448 13.3743 47.0448C20.2822 47.0448 25.8829 41.5086 25.8829 34.6804L13.3743 13.9475L0.865723 34.6804Z" stroke="#0A1E86" stroke-width="2" stroke-linecap="round" stroke-linejoin="round"/>
<path d="M0.865723 34.6804H25.8829" stroke="#0A1E86" stroke-width="2" stroke-linecap="round" stroke-linejoin="round"/>
<path d="M59.6261 13.9475H44.1396" stroke="#0A1E86" stroke-width="2" stroke-linecap="round" stroke-linejoin="round"/>
<path d="M28.8696 13.9475H13.3745" stroke="#0A1E86" stroke-width="2" stroke-linecap="round" stroke-linejoin="round"/>
<path d="M36.5046 21.4944C40.7213 21.4944 44.1396 18.1155 44.1396 13.9474C44.1396 9.7793 40.7213 6.40039 36.5046 6.40039C32.2879 6.40039 28.8696 9.7793 28.8696 13.9474C28.8696 18.1155 32.2879 21.4944 36.5046 21.4944Z" stroke="#0A1E86" stroke-width="2" stroke-linecap="round" stroke-linejoin="round"/>
<path d="M36.5044 6.40045V0.855713" stroke="#0A1E86" stroke-width="2" stroke-linecap="round" stroke-linejoin="round"/>
<path d="M59.9979 58.947H13.002V67.1443H59.9979V58.947Z" stroke="#0A1E86" stroke-width="2" stroke-linecap="round" stroke-linejoin="round"/>
<path d="M36.5044 58.947V21.4944" stroke="#0A1E86" stroke-width="2" stroke-linecap="round" stroke-linejoin="round"/>
</g>
<defs>
<clipPath id="clip0_25_68">
<rect width="73" height="68" fill="white"/>
</clipPath>
</defs>
</svg>
