<svg width="70" height="70" viewBox="0 0 70 70" fill="none" xmlns="http://www.w3.org/2000/svg">
<g clip-path="url(#clip0_1_369)">
<path d="M35.0009 47.464C28.1167 47.464 22.536 41.8833 22.536 34.9991C22.536 28.1149 28.1167 22.5342 35.0009 22.5342C41.8851 22.5342 47.4658 28.1149 47.4658 34.9991C47.4658 41.8833 41.8851 47.464 35.0009 47.464Z" fill="#B0B0B0"/>
<path d="M22.536 49.3818C22.536 56.2663 28.1165 61.8467 35.0009 61.8467C41.8854 61.8467 47.4658 56.2663 47.4658 49.3818H22.536ZM20.6183 49.3818H8.79267C8.79267 55.9131 14.0871 61.2075 20.6183 61.2075V49.3818ZM24.206 63.7644C27.6482 69.7268 35.271 71.7691 41.2334 68.3269C43.1287 67.2322 44.7012 65.6597 45.7958 63.7644H24.206Z" fill="#B0B0B0"/>
<path d="M49.3836 47.464C56.268 47.464 61.8485 41.8835 61.8485 34.9991C61.8485 28.1146 56.268 22.5342 49.3836 22.5342V47.464ZM49.3836 49.3817V61.2073C55.9148 61.2073 61.2092 55.9129 61.2092 49.3817H49.3836ZM63.7661 45.794C69.7269 42.3518 71.7708 34.729 68.3286 28.7666C67.2339 26.8713 65.6614 25.2988 63.7661 24.2042V45.794Z" fill="#B0B0B0"/>
<path d="M47.4656 20.6169C47.4656 13.7325 41.8852 8.15204 35.0007 8.15204C28.1163 8.15204 22.5358 13.7325 22.5358 20.6169H47.4656ZM49.3833 20.6169H61.209C61.209 14.0856 55.9146 8.79126 49.3833 8.79126V20.6169ZM45.7957 6.23436C42.3534 0.27358 34.7291 -1.77034 28.7683 1.67189C26.873 2.76656 25.3005 4.33906 24.2058 6.23436H45.7957Z" fill="#B0B0B0"/>
<path d="M20.6182 22.5344C13.7337 22.5344 8.15326 28.1148 8.15326 34.9993C8.15326 41.8837 13.7337 47.4642 20.6182 47.4642V22.5344ZM20.6182 20.6167V8.79102C14.0869 8.79102 8.79249 14.0854 8.79249 20.6167H20.6182ZM6.23559 24.2043C0.273209 27.6466 -1.76912 35.2693 1.67311 41.2317C2.76779 43.127 4.34028 44.6995 6.23559 45.7942V24.2043Z" fill="#B0B0B0"/>
</g>
<defs>
<clipPath id="clip0_1_369">
<rect width="70" height="70" fill="white" transform="matrix(-1 0 0 1 70 0)"/>
</clipPath>
</defs>
</svg>
