<svg width="32" height="30" viewBox="0 0 32 30" fill="none" xmlns="http://www.w3.org/2000/svg">
<g clip-path="url(#clip0_25_62)">
<path d="M28.8097 0.106026C29.5527 0.0621773 30.5505 -0.0986022 31.2606 0.0877559C31.6503 0.19007 31.8033 0.35085 31.9963 0.694333C32.0036 1.15475 31.603 1.74671 31.3772 2.14135C28.533 7.1584 25.2882 12.0037 22.2328 16.8965C20.441 19.7796 18.6311 22.6481 16.7993 25.5055C16.0199 26.7224 15.2916 28.0049 14.4467 29.1742C14.2282 29.4739 13.9733 29.9087 13.5909 29.9854C13.4052 30.022 13.1102 30.0001 12.9609 29.8868C12.0504 29.2035 11.73 22.955 11.5807 21.5336L10.754 13.7102C9.61412 12.5189 0.207495 2.58349 0.0144828 1.76498C-0.0437851 1.52746 0.0909594 1.41053 0.214779 1.22418C0.699131 1.01589 1.23082 0.968389 1.75159 0.92454C4.66499 0.690679 7.65486 0.774723 10.5828 0.683371L28.8097 0.106026Z" fill="#0A1E86"/>
<path d="M23.5986 1.85999C24.9642 1.77229 26.3444 1.80517 27.7101 1.79787C22.4259 5.37521 16.9451 8.6785 11.5808 12.1389C10.7978 11.3935 10.084 10.5384 9.34841 9.74184C7.03955 7.39226 4.85086 4.9148 2.62939 2.48118C5.13491 2.27655 7.68049 2.27655 10.1933 2.21078L23.5949 1.85633L23.5986 1.85999Z" fill="white"/>
<path d="M28.2126 3.59203L28.2781 3.79301C27.0181 6.23759 25.3611 8.59447 23.9044 10.9367C20.6523 16.184 17.3565 21.402 14.0171 26.5908C13.9333 26.3131 13.8969 26.0025 13.8423 25.7138C13.4999 21.6468 13.0156 17.5104 12.3965 13.4763C17.6989 10.2461 22.7937 6.61396 28.2089 3.58838L28.2126 3.59203Z" fill="white"/>
</g>
<defs>
<clipPath id="clip0_25_62">
<rect width="32" height="30" fill="white"/>
</clipPath>
</defs>
</svg>
