<svg width="96" height="42" viewBox="0 0 96 42" fill="none" xmlns="http://www.w3.org/2000/svg">
<g clip-path="url(#clip0_1_377)">
<path d="M0.0795898 0.615234H18.0919C23.4838 0.615234 28.2594 3.26983 28.2594 8.57901C28.2594 11.3283 26.569 13.5031 23.935 14.4974C27.589 15.4948 30.2261 17.9632 30.2261 21.7541C30.2261 27.0665 25.5586 30.3808 19.3883 30.3808H0.0795898V0.615234ZM6.5963 12.512H17.3579C20.2239 12.512 21.7458 10.9432 21.7458 9.14402C21.7458 7.34483 20.2271 5.83288 17.3579 5.83288H6.5963V12.5151V12.512ZM6.5963 25.16H18.6511C21.5679 25.16 23.7031 23.5502 23.7031 21.4637C23.7031 19.3773 21.5647 17.717 18.6511 17.717H6.5963V25.16Z" fill="#959595"/>
<path d="M39.0526 12.8247V30.381H32.5327V0L55.292 18.1686V0.615512H61.8119V30.9997L39.0526 12.8247Z" fill="#959595"/>
<path d="M72.2877 12.8247V30.381H65.771V0L88.5239 18.1686V0.615512H95.047V30.9997L72.2877 12.8247Z" fill="#959595"/>
<path d="M0 34.2512V41.893H2.13517C3.49825 41.893 4.24174 41.1007 4.24174 39.6425C4.24174 38.7681 3.92719 38.2126 3.28536 37.878C3.87317 37.5529 4.09876 36.8837 4.09876 36.3155C4.09876 34.9519 3.39975 34.248 2.00808 34.248H0V34.2512ZM1.87463 35.4949C2.383 35.4949 2.61812 35.7979 2.61812 36.4607C2.61812 36.9816 2.32263 37.313 1.85556 37.313H1.48064V35.4949H1.87463ZM1.80155 38.5503C2.48468 38.5503 2.7611 38.8565 2.7611 39.6046C2.7611 40.3527 2.51963 40.6525 1.92546 40.6525H1.48064V38.5472H1.80155V38.5503Z" fill="#959595"/>
<path d="M7.85742 34.251V39.9768C7.85742 40.4755 7.67314 40.6965 7.26326 40.6965C6.85339 40.6965 6.67228 40.4755 6.67228 39.9768V34.251H5.20117V39.9232C5.20117 41.2205 5.97009 41.997 7.26326 41.997C8.55644 41.997 9.33488 41.2205 9.33488 39.9232V34.251H7.85425H7.85742Z" fill="#959595"/>
<path d="M10.1864 36.1001C10.1864 37.309 10.9935 37.9845 11.7052 38.5748C12.293 39.064 12.8045 39.4838 12.8045 40.1088C12.8045 40.4813 12.5631 40.6928 12.1437 40.6928C11.7656 40.6928 11.5209 40.3172 11.4701 39.6606V39.5564L10.0562 39.749V39.8468C10.1102 40.92 10.7552 41.9932 12.0896 41.9932C13.4241 41.9932 14.2185 41.2325 14.2185 39.9952C14.2185 38.7579 13.3828 38.1139 12.6457 37.489C12.0865 37.0218 11.594 36.602 11.594 36.0906C11.594 35.7971 11.6925 35.4562 12.1405 35.4562C12.3057 35.4562 12.6838 35.5256 12.7346 36.1853L12.7442 36.2927L14.1613 36.1317L14.1486 36.0338C14.0215 34.8691 13.3002 34.1494 12.2644 34.1494C10.9395 34.1494 10.1769 34.8628 10.1769 36.097" fill="#959595"/>
<path d="M16.6618 34.251H15.1875V41.8928H16.6618V34.251Z" fill="#959595"/>
<path d="M20.6781 34.251V38.1397C20.4208 37.4295 19.2483 34.251 19.2483 34.251H17.8916V41.8928H19.2483V37.6379C19.512 38.3828 20.7512 41.8928 20.7512 41.8928H22.038V34.251H20.6781Z" fill="#959595"/>
<path d="M23.0864 34.251V41.8928H26.877V40.5923H24.5702V38.5911H26.2256V37.2938H24.5702V35.5609H26.7308V34.251H23.0864Z" fill="#959595"/>
<path d="M27.4965 36.1001C27.4965 37.309 28.3067 37.9845 29.0152 38.5748C29.6062 39.064 30.1178 39.4838 30.1178 40.1088C30.1178 40.4813 29.8731 40.6928 29.4601 40.6928C29.0756 40.6928 28.831 40.3172 28.7833 39.6606V39.5564L27.3662 39.749V39.8468C27.4266 40.92 28.0684 41.9932 29.3997 41.9932C30.731 41.9932 31.5317 41.2325 31.5317 39.9952C31.5317 38.7579 30.6992 38.1139 29.9621 37.489C29.3997 37.0218 28.9072 36.602 28.9072 36.0906C28.9072 35.7971 29.0025 35.4562 29.4601 35.4562C29.6189 35.4562 29.997 35.5256 30.0574 36.1853V36.2927L31.4777 36.1317L31.465 36.0338C31.3411 34.8691 30.623 34.1494 29.584 34.1494C28.2559 34.1494 27.4965 34.8628 27.4965 36.097" fill="#959595"/>
<path d="M32.1102 36.1001C32.1102 37.309 32.9205 37.9845 33.6322 38.5748C34.2232 39.064 34.7316 39.4838 34.7316 40.1088C34.7316 40.4813 34.4933 40.6928 34.0707 40.6928C33.6926 40.6928 33.4479 40.3172 33.4034 39.6606L33.3971 39.5564L31.98 39.749L31.9895 39.8468C32.0372 40.92 32.6822 41.9932 34.0103 41.9932C35.3384 41.9932 36.1423 41.2325 36.1423 39.9952C36.1423 38.7579 35.313 38.1139 34.5759 37.489C34.0103 37.0218 33.5242 36.602 33.5242 36.0906C33.5242 35.7971 33.6163 35.4562 34.0675 35.4562C34.2327 35.4562 34.6108 35.5256 34.6616 36.1853L34.668 36.2927L36.0883 36.1317L36.0787 36.0338C35.9516 34.8691 35.2304 34.1494 34.1946 34.1494C32.8728 34.1494 32.1071 34.8628 32.1071 36.097" fill="#959595"/>
<path d="M40.5588 34.4434L42.4906 39.9325H42.5128V34.4434H43.3231V41.8958H42.4493L40.1235 35.4156H40.1044V41.8958H39.291V34.4434H40.5588Z" fill="#959595"/>
<path d="M47.8126 34.4434V35.1188H45.1945V37.663H47.1263V38.3479H45.1945V41.2171H47.9365V41.8958H44.3843V34.4434H47.8126Z" fill="#959595"/>
<path d="M49.1249 34.4434L50.0177 40.2607H50.0368L51.1647 34.4434H51.8256L52.9917 40.2607H53.0107L53.8432 34.4434H54.5867L53.3793 41.8958H52.6898L51.511 36.0405H51.492L50.31 41.8958H49.6237L48.3687 34.4434H49.1249Z" fill="#959595"/>
<path d="M58.0309 36.3595C57.9642 35.5956 57.6591 35.0148 56.8775 35.0148C56.2484 35.0148 55.8449 35.4315 55.8449 35.9996C55.8449 37.6883 58.8506 37.7073 58.8506 40.0999C58.8506 41.2836 58.1707 41.9938 56.9379 41.9938C55.7051 41.9938 55.0537 41.1384 55.0347 39.8947H55.7845C55.8068 40.7754 56.2198 41.3183 57.0237 41.3183C57.6941 41.3183 58.1294 40.8795 58.1294 40.0904C58.1294 38.3985 55.1141 38.1965 55.1141 36.0722C55.1141 35.0148 55.8449 34.333 56.9156 34.333C57.9864 34.333 58.7108 35.0527 58.7712 36.3563H58.0277L58.0309 36.3595Z" fill="#959595"/>
<path d="M63.0097 34.4434L64.9479 39.9325H64.9669V34.4434H65.7771V41.8958H64.9097L62.5744 35.4156H62.5553V41.8958H61.7515V34.4434H63.0097Z" fill="#959595"/>
<path d="M70.2699 34.4434V35.1188H67.6454V37.663H69.5804V38.3479H67.6454V41.2171H70.3906V41.8958H66.8447V34.4434H70.2699Z" fill="#959595"/>
<path d="M74.7247 34.4434V35.1188H73.1837V41.8958H72.3735V35.1188H70.8389V34.4434H74.7247Z" fill="#959595"/>
<path d="M75.6175 34.4434L76.5199 40.2607H76.5358L77.6542 34.4434H78.3246L79.4843 40.2607H79.5034L80.3359 34.4434H81.0889L79.8815 41.8958H79.1888L78.0069 36.0405H77.9846L76.8058 41.8958H76.1195L74.874 34.4434H75.6175Z" fill="#959595"/>
<path d="M83.7545 41.9996C82.4931 41.9996 81.6353 40.9485 81.6353 38.1708C81.6353 35.3931 82.4931 34.3389 83.7545 34.3389C85.0159 34.3389 85.8738 35.39 85.8738 38.1708C85.8738 40.9517 85.0287 41.9996 83.7545 41.9996ZM83.7545 35.0144C83.0301 35.0144 82.4487 35.6425 82.4487 38.1708C82.4487 40.6992 83.0301 41.3241 83.7545 41.3241C84.479 41.3241 85.0604 40.696 85.0604 38.1708C85.0604 35.6456 84.4853 35.0144 83.7545 35.0144Z" fill="#959595"/>
<path d="M86.8301 34.4434H88.6475C89.8454 34.4434 90.7001 35.1409 90.7001 36.372C90.7001 37.2116 90.3283 37.9123 89.4959 38.2027L90.7636 41.8989H89.9057L88.7015 38.3637L87.6403 38.4079V41.8989H86.8301V34.4465V34.4434ZM87.6403 37.704H88.3488C89.5086 37.704 89.8835 37.2495 89.8835 36.413C89.8835 35.5765 89.5086 35.1188 88.3488 35.1188H87.6403V37.7071V37.704Z" fill="#959595"/>
<path d="M92.7338 34.4434V38.2374H92.756L94.8531 34.4434H95.73L94.2685 37.0443L96.0001 41.8958H95.12L93.7347 37.8713H93.7124L92.7338 39.6105V41.8958H91.9268V34.4434H92.7338Z" fill="#959595"/>
</g>
<defs>
<clipPath id="clip0_1_377">
<rect width="96" height="42" fill="white"/>
</clipPath>
</defs>
</svg>
