<svg width="34" height="34" viewBox="0 0 34 34" fill="none" xmlns="http://www.w3.org/2000/svg">
<path d="M8.78422 29.7503H2.61641V9.8882H8.78422V29.7503ZM5.69699 7.17883C3.72473 7.17883 2.125 5.54523 2.125 3.57297C2.125 2.62562 2.50133 1.71707 3.17121 1.04719C3.84109 0.37731 4.74964 0.000976562 5.69699 0.000976562C6.64434 0.000976562 7.55289 0.37731 8.22277 1.04719C8.89265 1.71707 9.26898 2.62562 9.26898 3.57297C9.26898 5.54523 7.66859 7.17883 5.69699 7.17883ZM31.8684 29.7503H25.7138V20.0816C25.7138 17.7773 25.6673 14.8222 22.5071 14.8222C19.3003 14.8222 18.8089 17.3257 18.8089 19.9155V29.7503H12.6477V9.8882H18.5632V12.5976H18.6495C19.473 11.037 21.4844 9.39016 24.4853 9.39016C30.7275 9.39016 31.875 13.5007 31.875 18.8398V29.7503H31.8684Z" fill="black"/>
</svg>
