<svg width="76" height="68" viewBox="0 0 76 68" fill="none" xmlns="http://www.w3.org/2000/svg">
<path d="M16.4771 1.01244C23.3834 0.184103 29.1566 2.11688 33.7965 7.37833C35.0675 8.82024 36.3079 10.661 38.1608 11.3819C40.3659 11.2285 42.3566 7.94589 43.7961 6.38126C46.9659 2.96055 51.3609 0.951078 56.0008 0.797683C61.2992 0.598269 66.2914 2.57706 70.1656 6.16651C73.1823 8.9583 75.0812 12.4864 75.219 16.6434C75.5865 28.24 62.3711 42.4751 54.8523 50.4363C49.5233 56.1579 43.9798 61.6801 38.268 67.0183C35.0981 64.5026 32.158 61.404 29.2484 58.5816C20.1829 49.7614 4.1499 34.3452 1.24037 21.8128C0.260316 17.5791 0.780969 13.3301 3.09328 9.63323C6.11 4.80129 11.0868 2.2396 16.4771 1.01244Z" fill="white" stroke="#0A1E86" stroke-width="2" stroke-miterlimit="10"/>
</svg>
